<svg xmlns="http://www.w3.org/2000/svg" id="Layer_1" version="1.1" viewBox="83 50.7 187.24 39.8">
  <!-- Generator: Adobe Illustrator 29.0.0, SVG Export Plug-In . SVG Version: 2.1.0 Build 186)  -->
  <defs>
    <style>
      .st0 {
        fill: #636569;
      }

      .st1 {
        fill: #316094;
      }
    </style>
  </defs>
  <path class="st0" d="M127.1,61.7v17.7h-3.1v-8h-8.1v8h-3.1v-17.7h3.1v7.1h8.1v-7.1h3.1ZM109.7,79.4h-3.1v-17.7h3.1v17.7ZM103.5,79.4h-3.3l-8.1-13h0v13h-3v-17.7h3.3l8.1,13.1h0v-13.1h3v17.7ZM138,70.5l-11-19.8h-40.4c-2,0-3.6,1.6-3.6,3.6v32.4c0,2,1.6,3.7,3.6,3.7h40.3l11-19.8Z"/>
  <path class="st1" d="M129.7,90.4l11-19.8-11-19.8h2.7c1.5,0,3.3,1.1,4,2.4l9.6,17.4-9.7,17.5c-.7,1.3-2.5,2.4-4.1,2.4h-2.7Z"/>
  <g>
    <path class="st0" d="M151.6,56.4h2l5,8.1h0v-8.1h1.8v10.9h-2l-5-8h0v8h-1.8v-10.9Z"/>
    <path class="st0" d="M169.2,65.6c0,.2,0,.4,0,.5,0,0,.2.1.3.1h.2c0,0,.2,0,.2,0v1.2c0,0-.1,0-.2,0,0,0-.2,0-.3,0-.1,0-.2,0-.3,0-.1,0-.2,0-.3,0-.4,0-.7,0-.9-.2-.2-.1-.4-.4-.5-.8-.3.3-.8.6-1.3.7s-1,.2-1.5.2-.7,0-1-.1c-.3,0-.6-.2-.9-.4-.3-.2-.4-.4-.6-.7-.1-.3-.2-.6-.2-1s0-.9.3-1.2.4-.5.7-.7c.3-.2.6-.3,1-.4.4,0,.7-.1,1.1-.2.3,0,.6-.1.9-.1.3,0,.5,0,.8-.1.2,0,.4-.2.5-.3s.2-.3.2-.6,0-.4-.2-.6-.2-.3-.4-.3c-.2,0-.3-.1-.5-.2-.2,0-.4,0-.6,0-.5,0-.9.1-1.2.3s-.5.5-.5,1h-1.7c0-.5.2-.9.4-1.3.2-.3.5-.6.8-.8.3-.2.7-.3,1.1-.4.4,0,.8-.1,1.3-.1s.8,0,1.1.1c.4,0,.7.2,1,.4.3.2.5.4.7.7.2.3.3.6.3,1.1v4.1ZM167.4,63.4c-.3.2-.6.3-1,.3-.4,0-.8,0-1.2.2-.2,0-.4,0-.5.1-.2,0-.3.1-.5.2s-.2.2-.3.4c0,.2-.1.4-.1.6s0,.4.2.5c.1.1.2.2.4.3.2,0,.3.1.5.2.2,0,.4,0,.5,0s.4,0,.6,0c.2,0,.4-.1.6-.3s.4-.3.5-.5c.1-.2.2-.4.2-.7v-1.3Z"/>
    <path class="st0" d="M170.2,59.4h1.3v-2.4h1.7v2.4h1.6v1.3h-1.6v4.2c0,.2,0,.3,0,.5,0,.1,0,.2.1.3,0,0,.1.2.3.2s.3,0,.5,0,.2,0,.4,0c.1,0,.2,0,.4,0v1.3c-.2,0-.4,0-.6,0-.2,0-.4,0-.6,0-.5,0-.8,0-1.1-.1-.3,0-.5-.2-.7-.4-.2-.2-.3-.4-.3-.6,0-.3,0-.5,0-.9v-4.7h-1.3v-1.3Z"/>
    <path class="st0" d="M176.2,56.4h1.7v1.7h-1.7v-1.7ZM176.2,59.4h1.7v7.9h-1.7v-7.9Z"/>
    <path class="st0" d="M183.5,67.6c-.6,0-1.2-.1-1.7-.3s-.9-.5-1.3-.9c-.3-.4-.6-.8-.8-1.3-.2-.5-.3-1.1-.3-1.7s0-1.2.3-1.7c.2-.5.4-1,.8-1.3.3-.4.8-.7,1.3-.9s1.1-.3,1.7-.3,1.2.1,1.7.3c.5.2.9.5,1.3.9.3.4.6.8.8,1.3.2.5.3,1.1.3,1.7s0,1.2-.3,1.7c-.2.5-.4,1-.8,1.3-.3.4-.8.7-1.3.9-.5.2-1.1.3-1.7.3ZM183.5,66.2c.4,0,.7,0,1-.2s.5-.4.7-.6c.2-.3.3-.6.4-.9,0-.3.1-.7.1-1s0-.7-.1-1c0-.3-.2-.6-.4-.9-.2-.3-.4-.5-.7-.6s-.6-.2-1-.2-.7,0-1,.2-.5.4-.7.6-.3.6-.4.9c0,.3-.1.7-.1,1s0,.7.1,1c0,.3.2.6.4.9.2.3.4.5.7.6s.6.2,1,.2Z"/>
    <path class="st0" d="M188.9,59.4h1.7v1.2h0c.3-.4.6-.8,1-1,.4-.2.9-.4,1.4-.4.9,0,1.6.2,2.1.7.5.4.8,1.1.8,2v5.4h-1.7v-5c0-.6-.2-1.1-.4-1.4-.2-.3-.6-.4-1.1-.4s-.6,0-.8.2c-.2.1-.4.3-.6.4s-.3.4-.4.7c0,.3-.1.5-.1.8v4.7h-1.7v-7.9Z"/>
    <path class="st0" d="M204.4,65.6c0,.2,0,.4,0,.5,0,0,.2.1.3.1h.2c0,0,.2,0,.2,0v1.2c0,0-.1,0-.2,0,0,0-.2,0-.3,0-.1,0-.2,0-.3,0-.1,0-.2,0-.3,0-.4,0-.7,0-.9-.2-.2-.1-.4-.4-.5-.8-.3.3-.8.6-1.3.7s-1,.2-1.5.2-.7,0-1-.1c-.3,0-.6-.2-.9-.4-.2-.2-.4-.4-.6-.7-.1-.3-.2-.6-.2-1s0-.9.3-1.2.4-.5.7-.7c.3-.2.6-.3,1-.4.4,0,.7-.1,1.1-.2.3,0,.6-.1.9-.1.3,0,.5,0,.8-.1.2,0,.4-.2.5-.3s.2-.3.2-.6,0-.4-.2-.6c-.1-.1-.2-.3-.4-.3s-.3-.1-.5-.2c-.2,0-.4,0-.6,0-.5,0-.9.1-1.2.3-.3.2-.5.5-.5,1h-1.7c0-.5.2-.9.4-1.3.2-.3.5-.6.8-.8.3-.2.7-.3,1.1-.4.4,0,.8-.1,1.3-.1s.8,0,1.1.1c.4,0,.7.2,1,.4.3.2.5.4.7.7.2.3.3.6.3,1.1v4.1ZM202.6,63.4c-.3.2-.6.3-1,.3-.4,0-.8,0-1.2.2-.2,0-.4,0-.5.1s-.3.1-.5.2-.2.2-.3.4c0,.2-.1.4-.1.6s0,.4.2.5c.1.1.2.2.4.3.2,0,.3.1.5.2s.4,0,.5,0,.4,0,.6,0c.2,0,.4-.1.6-.3s.4-.3.5-.5.2-.4.2-.7v-1.3Z"/>
    <path class="st0" d="M206.3,56.4h1.7v10.9h-1.7v-10.9Z"/>
    <path class="st0" d="M214.5,56.4h1.9v10.9h-1.9v-10.9Z"/>
    <path class="st0" d="M218.5,59.4h1.7v1.2h0c.3-.4.6-.8,1-1,.4-.2.9-.4,1.4-.4.9,0,1.6.2,2.1.7.5.4.8,1.1.8,2v5.4h-1.7v-5c0-.6-.2-1.1-.4-1.4-.2-.3-.6-.4-1.1-.4s-.6,0-.8.2c-.2.1-.4.3-.6.4s-.3.4-.4.7c0,.3-.1.5-.1.8v4.7h-1.7v-7.9Z"/>
    <path class="st0" d="M228.6,64.8c0,.5.2.9.6,1.1.3.2.7.3,1.2.3s.4,0,.6,0c.2,0,.4,0,.6-.1.2,0,.3-.2.5-.3.1-.1.2-.3.2-.5,0-.2,0-.4-.2-.6s-.4-.3-.6-.3c-.2,0-.5-.2-.8-.2-.3,0-.6-.1-.9-.2-.3,0-.6-.2-.9-.3-.3-.1-.6-.2-.8-.4s-.4-.4-.6-.7c-.1-.3-.2-.6-.2-1s.1-.8.3-1.1c.2-.3.5-.5.8-.7.3-.2.7-.3,1.1-.4.4,0,.8-.1,1.1-.1s.8,0,1.2.1c.4,0,.7.2,1,.4.3.2.6.4.8.8.2.3.3.7.4,1.1h-1.8c0-.4-.3-.7-.6-.8-.3-.1-.6-.2-1-.2s-.3,0-.4,0c-.2,0-.3,0-.5.1s-.3.1-.4.2c-.1.1-.2.2-.2.4s0,.4.2.5.3.2.6.3c.2,0,.5.2.8.2.3,0,.6.1,1,.2.3,0,.6.2.9.3.3.1.6.2.8.4s.4.4.6.7c.1.3.2.6.2,1s-.1.9-.3,1.2c-.2.3-.5.6-.8.8-.3.2-.7.4-1.1.4-.4,0-.8.1-1.2.1s-1,0-1.4-.2c-.4-.1-.8-.3-1.1-.5-.3-.2-.6-.5-.7-.9-.2-.3-.3-.7-.3-1.2h1.7Z"/>
    <path class="st0" d="M234.4,59.4h1.3v-2.4h1.7v2.4h1.6v1.3h-1.6v4.2c0,.2,0,.3,0,.5,0,.1,0,.2.1.3,0,0,.1.2.3.2.1,0,.3,0,.5,0s.2,0,.4,0c.1,0,.2,0,.4,0v1.3c-.2,0-.4,0-.6,0-.2,0-.4,0-.6,0-.5,0-.8,0-1.1-.1-.3,0-.5-.2-.7-.4-.2-.2-.3-.4-.3-.6,0-.3,0-.5,0-.9v-4.7h-1.3v-1.3Z"/>
    <path class="st0" d="M240.4,56.4h1.7v1.7h-1.7v-1.7ZM240.4,59.4h1.7v7.9h-1.7v-7.9Z"/>
    <path class="st0" d="M243.2,59.4h1.3v-2.4h1.7v2.4h1.6v1.3h-1.6v4.2c0,.2,0,.3,0,.5,0,.1,0,.2.1.3,0,0,.1.2.3.2.1,0,.3,0,.5,0s.2,0,.4,0c.1,0,.2,0,.4,0v1.3c-.2,0-.4,0-.6,0-.2,0-.4,0-.6,0-.5,0-.8,0-1.1-.1-.3,0-.5-.2-.7-.4-.2-.2-.3-.4-.3-.6,0-.3,0-.5,0-.9v-4.7h-1.3v-1.3Z"/>
    <path class="st0" d="M256.1,67.4h-1.7v-1.1h0c-.2.4-.5.7-1,1-.4.2-.9.4-1.3.4-1,0-1.8-.3-2.3-.8s-.7-1.3-.7-2.3v-5h1.7v4.9c0,.7.1,1.2.4,1.5.3.3.6.4,1.1.4s.7,0,.9-.2.4-.3.6-.5c.2-.2.3-.4.3-.7,0-.3,0-.6,0-.9v-4.6h1.7v7.9Z"/>
    <path class="st0" d="M257.1,59.4h1.3v-2.4h1.7v2.4h1.6v1.3h-1.6v4.2c0,.2,0,.3,0,.5,0,.1,0,.2.1.3,0,0,.1.2.3.2.1,0,.3,0,.5,0s.2,0,.4,0c.1,0,.2,0,.4,0v1.3c-.2,0-.4,0-.6,0-.2,0-.4,0-.6,0-.5,0-.8,0-1.1-.1-.3,0-.5-.2-.7-.4-.2-.2-.3-.4-.3-.6,0-.3,0-.5,0-.9v-4.7h-1.3v-1.3Z"/>
    <path class="st0" d="M264.4,63.8c0,.3,0,.6.1.9,0,.3.2.5.4.8.2.2.4.4.7.5.3.1.6.2,1,.2s.9-.1,1.2-.3c.3-.2.5-.5.7-1h1.7c0,.4-.2.8-.5,1.1-.2.3-.5.6-.8.9-.3.2-.7.4-1.1.5-.4.1-.8.2-1.2.2-.6,0-1.2-.1-1.7-.3-.5-.2-.9-.5-1.2-.9-.3-.4-.6-.8-.8-1.3-.2-.5-.3-1.1-.3-1.7s0-1.1.3-1.6.4-1,.8-1.3.7-.7,1.2-.9,1-.3,1.6-.3,1.2.1,1.7.4c.5.3.9.6,1.2,1s.6.9.7,1.5.2,1.1.1,1.7h-5.8ZM268.5,62.7c0-.3,0-.5-.2-.8,0-.3-.2-.5-.4-.7s-.4-.3-.6-.5-.5-.2-.8-.2-.6,0-.8.2c-.2.1-.5.3-.6.4s-.3.4-.4.7c-.1.3-.2.5-.2.8h4.1Z"/>
    <path class="st0" d="M155.1,84c-.6,0-1.2-.1-1.7-.3s-.9-.5-1.3-.9c-.3-.4-.6-.8-.8-1.3-.2-.5-.3-1.1-.3-1.7s0-1.2.3-1.7c.2-.5.4-1,.8-1.3.3-.4.8-.7,1.3-.9.5-.2,1.1-.3,1.7-.3s1.2.1,1.7.3c.5.2.9.5,1.3.9.3.4.6.8.8,1.3.2.5.3,1.1.3,1.7s0,1.2-.3,1.7-.4,1-.8,1.3c-.3.4-.8.7-1.3.9-.5.2-1.1.3-1.7.3ZM155.1,82.6c.4,0,.7,0,1-.2s.5-.4.7-.6c.2-.3.3-.6.4-.9,0-.3.1-.7.1-1s0-.7-.1-1c0-.3-.2-.6-.4-.9-.2-.3-.4-.5-.7-.6-.3-.2-.6-.2-1-.2s-.7,0-1,.2c-.3.2-.5.4-.7.6s-.3.6-.4.9c0,.3-.1.7-.1,1s0,.7.1,1,.2.6.4.9.4.5.7.6.6.2,1,.2Z"/>
    <path class="st0" d="M160.5,75.8h1.7v1.2h0c.3-.4.6-.8,1-1,.4-.2.9-.4,1.4-.4.9,0,1.6.2,2.1.7.5.5.8,1.1.8,2v5.4h-1.7v-5c0-.6-.2-1.1-.4-1.4-.2-.3-.6-.4-1.1-.4s-.6,0-.8.2c-.2.1-.4.3-.6.4-.2.2-.3.4-.4.7,0,.3-.1.5-.1.8v4.7h-1.7v-7.9Z"/>
    <path class="st0" d="M173.8,72.8h4.5c.8,0,1.6.1,2.2.4.6.3,1.1.7,1.5,1.2.4.5.7,1.1.9,1.7.2.7.3,1.4.3,2.1s0,1.5-.3,2.1c-.2.7-.5,1.2-.9,1.7-.4.5-.9.9-1.5,1.2-.6.3-1.3.4-2.2.4h-4.5v-10.9ZM175.8,82.2h1.9c.7,0,1.4,0,1.8-.3s.8-.5,1.1-.8c.3-.4.5-.8.6-1.2,0-.5.1-1,.1-1.5s0-1.1-.1-1.5c0-.5-.3-.9-.6-1.2-.3-.4-.6-.6-1.1-.8s-1.1-.3-1.8-.3h-1.9v7.8Z"/>
    <path class="st0" d="M184.7,75.8h1.6v1.5h0c0-.2.2-.4.3-.6.1-.2.3-.4.5-.6.2-.2.4-.3.7-.4.3-.1.5-.2.8-.2s.3,0,.4,0c0,0,.2,0,.2,0v1.7c-.1,0-.2,0-.4,0-.1,0-.3,0-.4,0-.3,0-.6,0-.8.2-.3.1-.5.3-.7.5-.2.2-.3.5-.5.9-.1.3-.2.7-.2,1.2v3.8h-1.7v-7.9Z"/>
    <path class="st0" d="M197,83.8h-1.7v-1.1h0c-.2.4-.5.7-1,1s-.9.4-1.3.4c-1,0-1.8-.3-2.3-.8-.5-.5-.7-1.3-.7-2.3v-5h1.7v4.9c0,.7.1,1.2.4,1.5.3.3.6.4,1.1.4s.7,0,.9-.2c.2-.1.4-.3.6-.5.2-.2.3-.4.3-.7s0-.6,0-.9v-4.6h1.7v7.9Z"/>
    <path class="st0" d="M206.2,83.3c0,1.2-.3,2.1-1,2.7s-1.6.9-2.9.9-.8,0-1.2-.1c-.4,0-.8-.2-1.1-.4-.3-.2-.6-.5-.8-.8-.2-.3-.4-.7-.4-1.2h1.7c0,.2.1.4.3.6.1.2.3.3.4.4.2,0,.4.1.6.2.2,0,.4,0,.6,0,.7,0,1.2-.2,1.5-.5s.5-.8.5-1.5v-1.2h0c-.2.4-.6.8-1,1s-.9.4-1.4.4-1.2-.1-1.6-.3-.8-.5-1.1-.9c-.3-.4-.5-.8-.6-1.3-.1-.5-.2-1-.2-1.6s0-1,.2-1.5c.2-.5.4-.9.7-1.3.3-.4.7-.7,1.1-.9.4-.2.9-.3,1.5-.3s1,.1,1.4.3c.4.2.7.5,1,1h0v-1.1h1.7v7.5ZM202.3,82.4c.4,0,.7,0,1-.2s.5-.4.7-.6c.2-.3.3-.6.4-.9,0-.3.1-.7.1-1s0-.7-.1-1-.2-.6-.4-.8c-.2-.2-.4-.4-.7-.6-.3-.1-.6-.2-1-.2s-.7,0-1,.2c-.3.2-.5.4-.6.6-.2.3-.3.6-.4.9,0,.3-.1.7-.1,1s0,.6.1,1c0,.3.2.6.4.8.2.2.4.4.6.6.3.2.6.2.9.2Z"/>
    <path class="st0" d="M215.4,72.8h2l4.2,10.9h-2.1l-1-2.9h-4.4l-1,2.9h-2l4.2-10.9ZM214.7,79.4h3.3l-1.6-4.7h0l-1.7,4.7Z"/>
    <path class="st0" d="M222.5,72.8h1.7v4h0c.1-.2.3-.4.4-.5s.4-.3.6-.4c.2-.1.4-.2.7-.2.2,0,.5,0,.7,0,.6,0,1.2.1,1.6.3s.9.5,1.2.9c.3.4.5.8.7,1.3s.2,1.1.2,1.6,0,1-.2,1.5-.3.9-.6,1.3c-.3.4-.6.7-1.1.9-.4.2-.9.3-1.5.3s-.5,0-.8,0c-.3,0-.5-.1-.8-.2-.2-.1-.5-.2-.7-.4-.2-.2-.4-.4-.5-.6h0v1.1h-1.7v-10.9ZM228.6,79.8c0-.4,0-.7-.1-1,0-.3-.2-.6-.4-.9-.2-.3-.4-.5-.7-.6-.3-.2-.6-.2-1-.2-.7,0-1.3.3-1.7.8-.4.5-.6,1.2-.6,2s0,.8.1,1.1c0,.3.2.6.4.9s.4.4.7.6c.3.1.6.2.9.2s.7,0,1-.2c.3-.2.5-.4.7-.6.2-.3.3-.6.4-.9,0-.3.1-.7.1-1Z"/>
    <path class="st0" d="M238.8,83.8h-1.7v-1.1h0c-.2.4-.5.7-1,1s-.9.4-1.3.4c-1,0-1.8-.3-2.3-.8-.5-.5-.7-1.3-.7-2.3v-5h1.7v4.9c0,.7.1,1.2.4,1.5.3.3.6.4,1.1.4s.7,0,.9-.2c.2-.1.4-.3.6-.5.2-.2.3-.4.3-.7s0-.6,0-.9v-4.6h1.7v7.9Z"/>
    <path class="st0" d="M241.9,81.2c0,.5.2.9.6,1.1.3.2.7.3,1.2.3s.4,0,.6,0c.2,0,.4,0,.6-.1.2,0,.3-.2.5-.3.1-.1.2-.3.2-.5,0-.2,0-.4-.2-.6-.2-.1-.4-.3-.6-.3s-.5-.2-.8-.2c-.3,0-.6-.1-.9-.2-.3,0-.6-.2-.9-.3-.3-.1-.6-.2-.8-.4s-.4-.4-.6-.7c-.1-.3-.2-.6-.2-1s.1-.8.3-1.1c.2-.3.5-.5.8-.7s.7-.3,1.1-.4c.4,0,.8-.1,1.1-.1s.8,0,1.2.1c.4,0,.7.2,1,.4.3.2.6.4.8.8s.3.7.4,1.1h-1.8c0-.4-.3-.7-.6-.8-.3-.1-.6-.2-1-.2s-.3,0-.4,0c-.2,0-.3,0-.5.1-.1,0-.3.1-.4.2-.1.1-.2.2-.2.4s0,.4.2.5.3.2.6.3c.2,0,.5.2.8.2.3,0,.6.1,1,.2.3,0,.6.2.9.3.3.1.6.2.8.4s.4.4.6.7c.1.3.2.6.2,1s-.1.9-.3,1.2c-.2.3-.5.6-.8.8-.3.2-.7.4-1.1.4-.4,0-.8.1-1.2.1s-1,0-1.4-.2c-.4-.1-.8-.3-1.1-.5-.3-.2-.6-.5-.7-.9-.2-.3-.3-.7-.3-1.2h1.7Z"/>
    <path class="st0" d="M249.9,80.2c0,.3,0,.6.1.9s.2.5.4.8c.2.2.4.4.7.5.3.1.6.2,1,.2s.9-.1,1.2-.3c.3-.2.5-.5.7-1h1.7c0,.4-.2.8-.5,1.1-.2.3-.5.6-.8.9-.3.2-.7.4-1.1.5-.4.1-.8.2-1.2.2-.6,0-1.2-.1-1.7-.3-.5-.2-.9-.5-1.2-.9-.3-.4-.6-.8-.8-1.3-.2-.5-.3-1.1-.3-1.7s0-1.1.3-1.6.4-1,.8-1.3c.3-.4.7-.7,1.2-.9s1-.3,1.6-.3,1.2.1,1.7.4c.5.3.9.6,1.2,1,.3.4.6.9.7,1.5.1.6.2,1.1.1,1.7h-5.8ZM254,79.1c0-.3,0-.5-.2-.8,0-.3-.2-.5-.4-.7s-.4-.3-.6-.5-.5-.2-.8-.2-.6,0-.8.2c-.2.1-.5.3-.6.4-.2.2-.3.4-.4.7-.1.3-.2.5-.2.8h4.1Z"/>
  </g>
</svg>